<svg xmlns="http://www.w3.org/2000/svg" xmlns:xlink="http://www.w3.org/1999/xlink" contentStyleType="text/css" data-diagram-type="ACTIVITY" height="1302px" preserveAspectRatio="none" style="width:613px;height:1302px;background:#FFFFFF;" version="1.1" viewBox="0 0 613 1302" width="613px" zoomAndPan="magnify"><?plantuml 1.2026.3beta6?><defs><filter height="300%" id="fmyxcguxhlmh3" width="300%" x="-1" y="-1"><feGaussianBlur result="blurOut" stdDeviation="2"/><feColorMatrix in="blurOut" result="blurOut2" type="matrix" values="0 0 0 0 0 0 0 0 0 0 0 0 0 0 0 0 0 0 .4 0"/><feOffset dx="4" dy="4" in="blurOut2" result="blurOut3"/><feBlend in="SourceGraphic" in2="blurOut3" mode="normal"/></filter></defs><g><g class="title" data-source-line="18"><text fill="#000000" font-family="'Microsoft YaHei', 'PingFang SC', sans-serif" font-size="14" font-weight="700" lengthAdjust="spacing" textLength="258.3228" x="176.8348" y="32.9951">Qwen3-ASR &#36816;&#32500;&#39046;&#22495; LoRA &#24494;&#35843;&#31574;&#30053;</text></g><ellipse cx="301.9962" cy="62.2969" fill="#222222" filter="url(#fmyxcguxhlmh3)" rx="10" ry="10" style="stroke:#222222;stroke-width:1;"/><rect fill="#E8F4F8" filter="url(#fmyxcguxhlmh3)" height="202.2031" rx="7.5" ry="7.5" style="stroke:#2C3E50;stroke-width:1.5;" width="571.9924" x="16" y="82.2969"/><path d="M234.489,82.2969 L234.489,91.5938 L224.489,101.5938 L16,101.5938" fill="none" style="stroke:#2C3E50;stroke-width:1.5;"/><text fill="#2C3E50" font-family="'Microsoft YaHei', 'PingFang SC', sans-serif" font-size="14" lengthAdjust="spacing" textLength="208.489" x="19" y="96.292">1. &#25968;&#25454;&#20934;&#22791; (Data Preparation)</text><rect fill="#555555" filter="url(#fmyxcguxhlmh3)" height="6" rx="2.5" ry="2.5" style="stroke:#555555;stroke-width:1;" width="551.9924" x="26" y="118.5938"/><rect fill="#FFFFFF" filter="url(#fmyxcguxhlmh3)" height="47.9375" rx="7.5" ry="7.5" style="stroke:#4A90E2;stroke-width:0.5;" width="153.1786" x="38" y="144.5938"/><text fill="#333333" font-family="'Microsoft YaHei', 'PingFang SC', sans-serif" font-size="12" lengthAdjust="spacing" textLength="133.1786" x="48" y="165.7324">&#21152;&#36733;&#26412;&#22320;&#25968;&#25454; (&#36816;&#32500;&#39046;&#22495;)</text><text fill="#333333" font-family="'Microsoft YaHei', 'PingFang SC', sans-serif" font-size="12" lengthAdjust="spacing" textLength="126.2" x="48" y="179.7012">-&gt; &#21010;&#20998;&#35757;&#32451;&#38598;&#19982;&#39564;&#35777;&#38598;</text><rect fill="#FFFFFF" filter="url(#fmyxcguxhlmh3)" height="47.9375" rx="7.5" ry="7.5" style="stroke:#4A90E2;stroke-width:0.5;" width="159.436" x="219.1786" y="144.5938"/><text fill="#333333" font-family="'Microsoft YaHei', 'PingFang SC', sans-serif" font-size="12" lengthAdjust="spacing" textLength="139.436" x="229.1786" y="165.7324">&#21152;&#36733; GigaSpeech &#25968;&#25454;&#38598;</text><text fill="#333333" font-family="'Microsoft YaHei', 'PingFang SC', sans-serif" font-size="12" lengthAdjust="spacing" textLength="138.2001" x="229.1786" y="179.7012">-&gt; &#25552;&#21462;&#38899;&#39057;&#24182;&#35268;&#33539;&#21270;&#25991;&#26412;</text><rect fill="#FFFFFF" filter="url(#fmyxcguxhlmh3)" height="47.9375" rx="7.5" ry="7.5" style="stroke:#4A90E2;stroke-width:0.5;" width="159.3778" x="406.6147" y="144.5938"/><text fill="#333333" font-family="'Microsoft YaHei', 'PingFang SC', sans-serif" font-size="12" lengthAdjust="spacing" textLength="128.936" x="416.6147" y="165.7324">&#21152;&#36733; AISHELL-1 &#25968;&#25454;&#38598;</text><text fill="#333333" font-family="'Microsoft YaHei', 'PingFang SC', sans-serif" font-size="12" lengthAdjust="spacing" textLength="139.3778" x="416.6147" y="179.7012">-&gt; &#35268;&#33539;&#21270;&#25991;&#26412; (&#21435;&#31354;&#26684;&#31561;)</text><rect fill="#555555" filter="url(#fmyxcguxhlmh3)" height="6" rx="2.5" ry="2.5" style="stroke:#555555;stroke-width:1;" width="551.9924" x="26" y="212.5313"/><rect fill="#FFFFFF" filter="url(#fmyxcguxhlmh3)" height="33.9688" rx="7.5" ry="7.5" style="stroke:#4A90E2;stroke-width:0.5;" width="188.0013" x="207.9956" y="238.5313"/><text fill="#333333" font-family="'Microsoft YaHei', 'PingFang SC', sans-serif" font-size="12" lengthAdjust="spacing" textLength="168.0013" x="217.9956" y="259.6699">&#26681;&#25454;&#38899;&#39057;&#26102;&#38271;&#38408;&#20540;&#36807;&#28388;&#26080;&#25928;&#26679;&#26412;</text><rect fill="#E9F7EF" filter="url(#fmyxcguxhlmh3)" height="150.2031" rx="7.5" ry="7.5" style="stroke:#2C3E50;stroke-width:1.5;" width="283.9384" x="160.027" y="294.5"/><path d="M402.2845,294.5 L402.2845,303.7969 L392.2845,313.7969 L160.027,313.7969" fill="none" style="stroke:#2C3E50;stroke-width:1.5;"/><text fill="#2C3E50" font-family="'Microsoft YaHei', 'PingFang SC', sans-serif" font-size="14" lengthAdjust="spacing" textLength="232.2574" x="163.027" y="308.4951">2. &#24179;&#34913;&#28151;&#21512;&#37319;&#26679; (Balanced Mixing)</text><rect fill="#FFFFFF" filter="url(#fmyxcguxhlmh3)" height="47.9375" rx="7.5" ry="7.5" style="stroke:#4A90E2;stroke-width:0.5;" width="263.9384" x="170.027" y="330.7969"/><text fill="#333333" font-family="'Microsoft YaHei', 'PingFang SC', sans-serif" font-size="12" lengthAdjust="spacing" textLength="120.0009" x="180.027" y="351.9355">&#35774;&#23450;&#22810;&#25968;&#25454;&#28304;&#37319;&#26679;&#27604;&#20363;</text><text fill="#333333" font-family="'Microsoft YaHei', 'PingFang SC', sans-serif" font-size="12" lengthAdjust="spacing" textLength="243.9384" x="180.027" y="365.9043">(&#40664;&#35748;: 50% &#26412;&#22320;&#36816;&#32500;, 25% &#33521;&#25991;, 25% &#20013;&#25991;)</text><rect fill="#FFFFFF" filter="url(#fmyxcguxhlmh3)" height="33.9688" rx="7.5" ry="7.5" style="stroke:#4A90E2;stroke-width:0.5;" width="188.0013" x="207.9956" y="398.7344"/><text fill="#333333" font-family="'Microsoft YaHei', 'PingFang SC', sans-serif" font-size="12" lengthAdjust="spacing" textLength="168.0013" x="217.9956" y="419.873">&#29983;&#25104;&#25171;&#20081;&#30340;&#28151;&#21512;&#35757;&#32451;&#38598;&#19982;&#39564;&#35777;&#38598;</text><rect fill="#FEF9E7" filter="url(#fmyxcguxhlmh3)" height="258.1406" rx="7.5" ry="7.5" style="stroke:#2C3E50;stroke-width:1.5;" width="312.2274" x="145.8825" y="454.7031"/><path d="M401.1557,454.7031 L401.1557,464 L391.1557,474 L145.8825,474" fill="none" style="stroke:#2C3E50;stroke-width:1.5;"/><text fill="#2C3E50" font-family="'Microsoft YaHei', 'PingFang SC', sans-serif" font-size="14" lengthAdjust="spacing" textLength="245.2731" x="148.8825" y="468.6982">3. &#27169;&#22411;&#19982; LoRA &#37197;&#32622; (Model &amp; LoRA)</text><rect fill="#FFFFFF" filter="url(#fmyxcguxhlmh3)" height="33.9688" rx="7.5" ry="7.5" style="stroke:#4A90E2;stroke-width:0.5;" width="170.0064" x="216.993" y="491"/><text fill="#333333" font-family="'Microsoft YaHei', 'PingFang SC', sans-serif" font-size="12" lengthAdjust="spacing" textLength="150.0064" x="226.993" y="512.1387">&#21152;&#36733; Qwen3-ASR &#22522;&#30784;&#27169;&#22411;</text><rect fill="#FFFFFF" filter="url(#fmyxcguxhlmh3)" height="33.9688" rx="7.5" ry="7.5" style="stroke:#4A90E2;stroke-width:0.5;" width="292.2274" x="155.8825" y="544.9688"/><text fill="#333333" font-family="'Microsoft YaHei', 'PingFang SC', sans-serif" font-size="12" lengthAdjust="spacing" textLength="272.2274" x="165.8825" y="566.1074">&#31105;&#29992; KV Cache &#24182;&#25509;&#31649;&#21069;&#21521;&#20256;&#25773; (Patch Forward)</text><rect fill="#FFFFFF" filter="url(#fmyxcguxhlmh3)" height="33.9688" rx="7.5" ry="7.5" style="stroke:#4A90E2;stroke-width:0.5;" width="204.1608" x="199.9158" y="598.9375"/><text fill="#333333" font-family="'Microsoft YaHei', 'PingFang SC', sans-serif" font-size="12" lengthAdjust="spacing" textLength="184.1608" x="209.9158" y="620.0762">&#20923;&#32467;&#38899;&#39057;&#32534;&#30721;&#22120; (Audio Encoder)</text><rect fill="#FFFFFF" filter="url(#fmyxcguxhlmh3)" height="47.9375" rx="7.5" ry="7.5" style="stroke:#4A90E2;stroke-width:0.5;" width="254.0238" x="174.9843" y="652.9063"/><text fill="#333333" font-family="'Microsoft YaHei', 'PingFang SC', sans-serif" font-size="12" lengthAdjust="spacing" textLength="125.7426" x="184.9843" y="674.0449">&#23545; LLM &#37096;&#20998;&#27880;&#20837; LoRA</text><text fill="#333333" font-family="'Microsoft YaHei', 'PingFang SC', sans-serif" font-size="12" lengthAdjust="spacing" textLength="234.0238" x="184.9843" y="688.0137">(&#30446;&#26631;&#27169;&#22359;: q_proj, k_proj, v_proj, o_proj)</text><rect fill="#F5EEF8" filter="url(#fmyxcguxhlmh3)" height="258.1406" rx="7.5" ry="7.5" style="stroke:#2C3E50;stroke-width:1.5;" width="267.6133" x="168.1896" y="722.8438"/><path d="M379.9383,722.8438 L379.9383,732.1406 L369.9383,742.1406 L168.1896,742.1406" fill="none" style="stroke:#2C3E50;stroke-width:1.5;"/><text fill="#2C3E50" font-family="'Microsoft YaHei', 'PingFang SC', sans-serif" font-size="14" lengthAdjust="spacing" textLength="201.7487" x="171.1896" y="736.8389">4. &#25968;&#25454;&#39044;&#22788;&#29702; (Preprocessing)</text><rect fill="#FFFFFF" filter="url(#fmyxcguxhlmh3)" height="33.9688" rx="7.5" ry="7.5" style="stroke:#4A90E2;stroke-width:0.5;" width="224.5167" x="189.7379" y="759.1406"/><text fill="#333333" font-family="'Microsoft YaHei', 'PingFang SC', sans-serif" font-size="12" lengthAdjust="spacing" textLength="204.5167" x="199.7379" y="780.2793">&#21160;&#24577;&#29983;&#25104;&#36816;&#32500;&#19987;&#23646; Prompt (&#21253;&#21547;&#28909;&#35789;)</text><rect fill="#FFFFFF" filter="url(#fmyxcguxhlmh3)" height="47.9375" rx="7.5" ry="7.5" style="stroke:#4A90E2;stroke-width:0.5;" width="247.6133" x="178.1896" y="813.1094"/><text fill="#333333" font-family="'Microsoft YaHei', 'PingFang SC', sans-serif" font-size="12" lengthAdjust="spacing" textLength="96.0007" x="188.1896" y="834.248">&#32479;&#19968;&#30446;&#26631;&#25991;&#26412;&#26684;&#24335;</text><text fill="#333333" font-family="'Microsoft YaHei', 'PingFang SC', sans-serif" font-size="12" lengthAdjust="spacing" textLength="227.6133" x="188.1896" y="848.2168">(language &lt;lang&gt;&lt;asr_text&gt;&lt;text&gt;)</text><rect fill="#FFFFFF" filter="url(#fmyxcguxhlmh3)" height="33.9688" rx="7.5" ry="7.5" style="stroke:#4A90E2;stroke-width:0.5;" width="245.6454" x="179.1735" y="881.0469"/><text fill="#333333" font-family="'Microsoft YaHei', 'PingFang SC', sans-serif" font-size="12" lengthAdjust="spacing" textLength="225.6454" x="189.1735" y="902.1855">&#24212;&#29992;&#23545;&#35805;&#27169;&#26495; (Chat Template) &#26500;&#24314;&#21069;&#32512;</text><rect fill="#FFFFFF" filter="url(#fmyxcguxhlmh3)" height="33.9688" rx="7.5" ry="7.5" style="stroke:#4A90E2;stroke-width:0.5;" width="235.0049" x="184.4938" y="935.0156"/><text fill="#333333" font-family="'Microsoft YaHei', 'PingFang SC', sans-serif" font-size="12" lengthAdjust="spacing" textLength="215.0049" x="194.4938" y="956.1543">Data Collator &#23454;&#26102;&#21152;&#36733;&#38899;&#39057;&#24182;&#22635;&#20805;&#23545;&#40784;</text><rect fill="#FDEDEC" filter="url(#fmyxcguxhlmh3)" height="150.2031" rx="7.5" ry="7.5" style="stroke:#2C3E50;stroke-width:1.5;" width="267.8665" x="168.063" y="990.9844"/><path d="M398.1252,990.9844 L398.1252,1000.2813 L388.1252,1010.2813 L168.063,1010.2813" fill="none" style="stroke:#2C3E50;stroke-width:1.5;"/><text fill="#2C3E50" font-family="'Microsoft YaHei', 'PingFang SC', sans-serif" font-size="14" lengthAdjust="spacing" textLength="220.0623" x="171.063" y="1004.9795">5. &#27169;&#22411;&#35757;&#32451; (Training Execution)</text><rect fill="#FFFFFF" filter="url(#fmyxcguxhlmh3)" height="33.9688" rx="7.5" ry="7.5" style="stroke:#4A90E2;stroke-width:0.5;" width="247.8665" x="178.063" y="1027.2813"/><text fill="#333333" font-family="'Microsoft YaHei', 'PingFang SC', sans-serif" font-size="12" lengthAdjust="spacing" textLength="227.8665" x="188.063" y="1048.4199">&#21021;&#22987;&#21270;&#33258;&#23450;&#20041; Trainer (&#33258;&#21160;&#22788;&#29702;&#25968;&#25454;&#31934;&#24230;)</text><rect fill="#FFFFFF" filter="url(#fmyxcguxhlmh3)" height="47.9375" rx="7.5" ry="7.5" style="stroke:#4A90E2;stroke-width:0.5;" width="233.3648" x="185.3138" y="1081.25"/><text fill="#333333" font-family="'Microsoft YaHei', 'PingFang SC', sans-serif" font-size="12" lengthAdjust="spacing" textLength="72.0005" x="195.3138" y="1102.3887">&#25191;&#34892;&#35757;&#32451;&#24490;&#29615;</text><text fill="#333333" font-family="'Microsoft YaHei', 'PingFang SC', sans-serif" font-size="12" lengthAdjust="spacing" textLength="213.3648" x="195.3138" y="1116.3574">(&#20313;&#24358;&#23398;&#20064;&#29575;&#12289;&#26799;&#24230;&#32047;&#31215;&#12289;&#28151;&#21512;&#31934;&#24230;&#35757;&#32451;)</text><rect fill="#EAEDED" filter="url(#fmyxcguxhlmh3)" height="82.2656" rx="7.5" ry="7.5" style="stroke:#2C3E50;stroke-width:1.5;" width="233.3356" x="185.3284" y="1151.9893"/><path d="M408.664,1151.9893 L408.664,1161.2861 L398.664,1171.2861 L185.3284,1171.2861" fill="none" style="stroke:#2C3E50;stroke-width:1.5;"/><text fill="#2C3E50" font-family="'Microsoft YaHei', 'PingFang SC', sans-serif" font-size="14" lengthAdjust="spacing" textLength="213.3356" x="188.3284" y="1165.9844">6. &#35757;&#32451;&#21518;&#22788;&#29702; (Post-Processing)</text><rect fill="#FFFFFF" filter="url(#fmyxcguxhlmh3)" height="33.9688" rx="7.5" ry="7.5" style="stroke:#4A90E2;stroke-width:0.5;" width="178.204" x="212.8942" y="1188.2861"/><text fill="#333333" font-family="'Microsoft YaHei', 'PingFang SC', sans-serif" font-size="12" lengthAdjust="spacing" textLength="158.204" x="222.8942" y="1209.4248">&#20445;&#23384;&#26368;&#32456;&#30340; LoRA &#36866;&#37197;&#22120;&#26435;&#37325;</text><ellipse cx="301.9962" cy="1265.2549" fill="none" filter="url(#fmyxcguxhlmh3)" rx="11" ry="11" style="stroke:#222222;stroke-width:1;"/><ellipse cx="301.9962" cy="1265.2549" fill="#222222" rx="6" ry="6" style="stroke:#222222;stroke-width:1;"/><line style="stroke:#7FAEE3;stroke-width:1;" x1="114.5893" x2="114.5893" y1="124.5938" y2="144.5938"/><polygon fill="#7FAEE3" points="110.5893,134.5938,114.5893,144.5938,118.5893,134.5938,114.5893,138.5938" style="stroke:#7FAEE3;stroke-width:1;"/><line style="stroke:#7FAEE3;stroke-width:1;" x1="298.8967" x2="298.8967" y1="124.5938" y2="144.5938"/><polygon fill="#7FAEE3" points="294.8967,134.5938,298.8967,144.5938,302.8967,134.5938,298.8967,138.5938" style="stroke:#7FAEE3;stroke-width:1;"/><line style="stroke:#7FAEE3;stroke-width:1;" x1="486.3035" x2="486.3035" y1="124.5938" y2="144.5938"/><polygon fill="#7FAEE3" points="482.3035,134.5938,486.3035,144.5938,490.3035,134.5938,486.3035,138.5938" style="stroke:#7FAEE3;stroke-width:1;"/><line style="stroke:#7FAEE3;stroke-width:1;" x1="114.5893" x2="114.5893" y1="192.5313" y2="212.5313"/><polygon fill="#7FAEE3" points="110.5893,202.5313,114.5893,212.5313,118.5893,202.5313,114.5893,206.5313" style="stroke:#7FAEE3;stroke-width:1;"/><line style="stroke:#7FAEE3;stroke-width:1;" x1="298.8967" x2="298.8967" y1="192.5313" y2="212.5313"/><polygon fill="#7FAEE3" points="294.8967,202.5313,298.8967,212.5313,302.8967,202.5313,298.8967,206.5313" style="stroke:#7FAEE3;stroke-width:1;"/><line style="stroke:#7FAEE3;stroke-width:1;" x1="486.3035" x2="486.3035" y1="192.5313" y2="212.5313"/><polygon fill="#7FAEE3" points="482.3035,202.5313,486.3035,212.5313,490.3035,202.5313,486.3035,206.5313" style="stroke:#7FAEE3;stroke-width:1;"/><line style="stroke:#7FAEE3;stroke-width:1;" x1="301.9962" x2="301.9962" y1="218.5313" y2="238.5313"/><polygon fill="#7FAEE3" points="297.9962,228.5313,301.9962,238.5313,305.9962,228.5313,301.9962,232.5313" style="stroke:#7FAEE3;stroke-width:1;"/><line style="stroke:#7FAEE3;stroke-width:1;" x1="301.9962" x2="301.9962" y1="72.2969" y2="118.5938"/><polygon fill="#7FAEE3" points="297.9962,108.5938,301.9962,118.5938,305.9962,108.5938,301.9962,112.5938" style="stroke:#7FAEE3;stroke-width:1;"/><line style="stroke:#7FAEE3;stroke-width:1;" x1="301.9962" x2="301.9962" y1="378.7344" y2="398.7344"/><polygon fill="#7FAEE3" points="297.9962,388.7344,301.9962,398.7344,305.9962,388.7344,301.9962,392.7344" style="stroke:#7FAEE3;stroke-width:1;"/><line style="stroke:#7FAEE3;stroke-width:1;" x1="301.9962" x2="301.9962" y1="272.5" y2="330.7969"/><polygon fill="#7FAEE3" points="297.9962,320.7969,301.9962,330.7969,305.9962,320.7969,301.9962,324.7969" style="stroke:#7FAEE3;stroke-width:1;"/><line style="stroke:#7FAEE3;stroke-width:1;" x1="301.9962" x2="301.9962" y1="524.9688" y2="544.9688"/><polygon fill="#7FAEE3" points="297.9962,534.9688,301.9962,544.9688,305.9962,534.9688,301.9962,538.9688" style="stroke:#7FAEE3;stroke-width:1;"/><line style="stroke:#7FAEE3;stroke-width:1;" x1="301.9962" x2="301.9962" y1="578.9375" y2="598.9375"/><polygon fill="#7FAEE3" points="297.9962,588.9375,301.9962,598.9375,305.9962,588.9375,301.9962,592.9375" style="stroke:#7FAEE3;stroke-width:1;"/><line style="stroke:#7FAEE3;stroke-width:1;" x1="301.9962" x2="301.9962" y1="632.9063" y2="652.9063"/><polygon fill="#7FAEE3" points="297.9962,642.9063,301.9962,652.9063,305.9962,642.9063,301.9962,646.9063" style="stroke:#7FAEE3;stroke-width:1;"/><line style="stroke:#7FAEE3;stroke-width:1;" x1="301.9962" x2="301.9962" y1="432.7031" y2="491"/><polygon fill="#7FAEE3" points="297.9962,481,301.9962,491,305.9962,481,301.9962,485" style="stroke:#7FAEE3;stroke-width:1;"/><line style="stroke:#7FAEE3;stroke-width:1;" x1="301.9962" x2="301.9962" y1="793.1094" y2="813.1094"/><polygon fill="#7FAEE3" points="297.9962,803.1094,301.9962,813.1094,305.9962,803.1094,301.9962,807.1094" style="stroke:#7FAEE3;stroke-width:1;"/><line style="stroke:#7FAEE3;stroke-width:1;" x1="301.9962" x2="301.9962" y1="861.0469" y2="881.0469"/><polygon fill="#7FAEE3" points="297.9962,871.0469,301.9962,881.0469,305.9962,871.0469,301.9962,875.0469" style="stroke:#7FAEE3;stroke-width:1;"/><line style="stroke:#7FAEE3;stroke-width:1;" x1="301.9962" x2="301.9962" y1="915.0156" y2="935.0156"/><polygon fill="#7FAEE3" points="297.9962,925.0156,301.9962,935.0156,305.9962,925.0156,301.9962,929.0156" style="stroke:#7FAEE3;stroke-width:1;"/><line style="stroke:#7FAEE3;stroke-width:1;" x1="301.9962" x2="301.9962" y1="700.8438" y2="759.1406"/><polygon fill="#7FAEE3" points="297.9962,749.1406,301.9962,759.1406,305.9962,749.1406,301.9962,753.1406" style="stroke:#7FAEE3;stroke-width:1;"/><line style="stroke:#7FAEE3;stroke-width:1;" x1="301.9962" x2="301.9962" y1="1061.25" y2="1081.25"/><polygon fill="#7FAEE3" points="297.9962,1071.25,301.9962,1081.25,305.9962,1071.25,301.9962,1075.25" style="stroke:#7FAEE3;stroke-width:1;"/><line style="stroke:#7FAEE3;stroke-width:1;" x1="301.9962" x2="301.9962" y1="968.9844" y2="1027.2813"/><polygon fill="#7FAEE3" points="297.9962,1017.2813,301.9962,1027.2813,305.9962,1017.2813,301.9962,1021.2813" style="stroke:#7FAEE3;stroke-width:1;"/><line style="stroke:#7FAEE3;stroke-width:1;" x1="301.9962" x2="301.9962" y1="1129.1875" y2="1188.2861"/><polygon fill="#7FAEE3" points="297.9962,1178.2861,301.9962,1188.2861,305.9962,1178.2861,301.9962,1182.2861" style="stroke:#7FAEE3;stroke-width:1;"/><line style="stroke:#7FAEE3;stroke-width:1;" x1="301.9962" x2="301.9962" y1="1222.2549" y2="1254.2549"/><polygon fill="#7FAEE3" points="297.9962,1244.2549,301.9962,1254.2549,305.9962,1244.2549,301.9962,1248.2549" style="stroke:#7FAEE3;stroke-width:1;"/><?plantuml-src VLLhJnj75FtkNp4YIciaGBnSWekG7DXjga95GrIfKgHePIzcYzbrTzU1gefa2du5C4vuXc1i8nukgMq8KS0FuCVKCxFxBtgzir13rUu7x_ZEt7FFlVVSMMrAaeE2AamZLGd9Fg-YogAAkbmExNP3cnHyoema-v6kXiIc3Pyu8OG2Eg_8-lV2j8XQHYMlgcZAX8v-4fw8KaiRQXa3Fru0t_4X-Ai9ijQkYQequN1yYOpY5RqiuaWUduRDoBAH-5Y_I9BiEQwjD4NnU7NffQJ_Ydvp87WU2zuflyLrI0aeAdh0Mm_RKrIVgDhsNaz_9zTjsHiCRMkFzLXMZwegCxQvZ_TmN8_ZLLFSCK7L9LrIv9l0pU3TGpsSg_C-U9FrFarTXTG1M9HrYE80v828VfWHvPvsp_XJP5odQFMJkHV5cGmQKPvw4Bug6YVpjB11rmyS3aq7DWv7y9PJIrS78kidPBc8Or6y7qFEOK4Nq9WgDjWtZhIse0VS8xwNVsGbCA6eKnOpDtwTDIuloSwVUEU4GI1dS_pMvtBx8CBnjpWUDOe5MfqttqUXC-Rnab6QW_NNDXmI_88aDuEYRoI_C1uKHU-apGwEMt1a9OLNDipCcRdt1fS_6qSBnj8yNjeW6p5WyZ-8dc_7dt0Z8-rTzm3l8I0dJbRf7nMIhT52ehK1ACg-cwpT95jk-5hXoUPdS_tQt8hZSCsuZf7gFjdCalKuAC-YykfEdRix42wV6RaSEJ_7gRWPYy4vv7mi10JPA_hGg3GB4hUAtS_tSRnLR3T86nUtyVus8qqgAUP8IclrgyNdijEiRXd5VJToTJv4h1Mi1Mses_KG6Okda1PRroyAiBOoSjEr38cdI6ArNZwbsmkCqd_qw6uQFI2NV0xlBi8X9Z2OE9W-v1nLV680VM4P6sdm7D_FzR4qx1xyerESgT1Sc24nHeTpT2sFlliH3GdUIH5gzPaa3sWnXnFBEFMcNikIjmNa71Dqa0Ilg3E2wcEvu6YLLbTPIsXjWsRdyBiySdf2Fab1dEm5MgfzibH68oEZo9pFWoJ9MHv73YowK4VwlaYoiGQXzAOR_V8Yg2e_jw4f-_tIVYlMk_L-KNflPiZSMy3x2pGL1QOmGQhY5JNDRYlluZXxXg0UUHAUOrrW_QfVhEBJNPWxPJgeWmYN8ZZrWSuNZDAotR9gfduHjcbQKWM9mWq7t451_f3W5z50OpKu86Zg2rsSrGS7h5yx-SeQ51XAO9JIa2P9NoFdqAIWesVYT30Ww68h8hiBk5g1WjDQsFAnhWAuTs0RhXvSt0N9irRU3Y3EVS2H2C2QbwdxPN7TQ8Kf2pcVgJ2LZGy0DojwGpUN2p_C3ND3Tc7YQNoq2DDen8v1-FLo0bbEy2rnDaolywo-hDpqunMk7BByIEB8o2snIFZgc2PBK9dwvJjSEyI5mtevIvEnly9pPAy4BlHJYHwL6dyjvJCSvlklvdxLWMpKLFAskOgcju_TQI_dWIo6MHRrwpGkR96TCAt6ORpiEGd_3gC2sYJfUJEsR8NHT2NuDm00?></g></svg>